<?xml version="1.0"?>
<svg xmlns="http://www.w3.org/2000/svg" height="512px" viewBox="0 0 16 16" width="512px"><g><path d="m12 10.5854-.707031-.706055c-.188965-.189453-.292969-.440918-.292969-.708008v-3.17139c0-2.08728-1.28815-3.87543-3.10931-4.62311-.263489-.796814-1.00653-1.37689-1.89069-1.37689-.884155 0-1.6272.580078-1.89069 1.37689-1.82117.747681-3.10931 2.53583-3.10931 4.62311v3.17188c0 .263184-.106934.520508-.292969.707031l-.707031.707031v2.41406h4.27814c.346863.59491.984741 1 1.72186 1 .737122 0 1.375-.40509 1.72186-1h4.27814v-2.41455z" transform="translate(2 1)" data-original="#000000" class="active-path" data-old_color="#000000" fill="#5D5D5D"/></g> </svg>
